# xmcd
#
# Track frame offsets: 
#        150
#        32165
#        63629
#        107254
#        162837
#        187364
#        229165
#        246486
#
# Disc length: 3767 seconds
#
# Revision: 1
# Processed by: cddbd v1.5.2PL0 Copyright (c) Steve Scherf et al.
# Submitted via: ExactAudioCopy v0.99pb4
#
DISCID=6e0eb508
DTITLE=Lolita - The Triple X Album
DYEAR=2005
DGENRE=Jazz
TTITLE0=Lilla
TTITLE1=Nicoli
TTITLE2=Caj in Marcipani
TTITLE3=Alka
TTITLE4=Minka
TTITLE5=Lilu
TTITLE6=The Triple X Song
TTITLE7=T' Nou
EXTD=YEAR: 2005
EXTT0=
EXTT1=
EXTT2=
EXTT3=
EXTT4=
EXTT5=
EXTT6=
EXTT7=
PLAYORDER=
